<svg width="160" height="83" viewBox="0 0 160 83" fill="none" xmlns="http://www.w3.org/2000/svg">
<path d="M14.25 64L24.455 45.435L22.5975 61.47L14.25 64ZM24.1 55.0675L25.3625 44.025L38.8875 45.8L24.1 55.0675ZM33.8275 32.935L39.3525 45.1L25.735 43.315L33.8275 32.935ZM36.715 37.5L43.56 34.075L39.925 44.5625L36.715 37.5ZM25.1775 42.82L17.54 19L33.3975 32.28L25.1775 42.82ZM42.45 39.54L44.12 34.72L45.75 42.58L42.45 39.54Z" fill="#FFA629"/>
<path d="M61.4347 48.5V33.9545H70.7528V36.1634H64.0696V40.1122H70.1136V42.321H64.0696V48.5H61.4347ZM73.0398 48.5V37.5909H75.6108V48.5H73.0398ZM74.3324 36.0426C73.9252 36.0426 73.5748 35.9077 73.2812 35.6378C72.9877 35.3632 72.8409 35.0341 72.8409 34.6506C72.8409 34.2623 72.9877 33.9332 73.2812 33.6634C73.5748 33.3887 73.9252 33.2514 74.3324 33.2514C74.7443 33.2514 75.0947 33.3887 75.3835 33.6634C75.6771 33.9332 75.8239 34.2623 75.8239 34.6506C75.8239 35.0341 75.6771 35.3632 75.3835 35.6378C75.0947 35.9077 74.7443 36.0426 74.3324 36.0426ZM80.8256 42.108V48.5H78.2546V37.5909H80.712V39.4446H80.8398C81.0908 38.8338 81.4909 38.3485 82.0401 37.9886C82.5941 37.6288 83.2783 37.4489 84.0927 37.4489C84.8455 37.4489 85.5013 37.6098 86.06 37.9318C86.6235 38.2538 87.0591 38.7202 87.3668 39.331C87.6793 39.9418 87.8332 40.6828 87.8285 41.554V48.5H85.2575V41.9517C85.2575 41.2225 85.0681 40.652 84.6893 40.2401C84.3152 39.8281 83.7968 39.6222 83.1339 39.6222C82.6841 39.6222 82.284 39.7216 81.9336 39.9205C81.5879 40.1146 81.3157 40.3963 81.1168 40.7656C80.9227 41.1349 80.8256 41.5824 80.8256 42.108ZM95.2006 48.7131C94.1116 48.7131 93.1765 48.474 92.3952 47.9957C91.6187 47.5175 91.0198 46.857 90.5984 46.0142C90.1817 45.1667 89.9734 44.1913 89.9734 43.0881C89.9734 41.9801 90.1864 41.0024 90.6126 40.1548C91.0387 39.3026 91.64 38.6397 92.4165 38.1662C93.1978 37.688 94.1211 37.4489 95.1864 37.4489C96.0719 37.4489 96.8555 37.6122 97.5373 37.9389C98.2238 38.2609 98.7707 38.7178 99.1779 39.3097C99.5851 39.8968 99.8171 40.5833 99.8739 41.3693H97.4165C97.3171 40.8437 97.0804 40.4058 96.7063 40.0554C96.337 39.7003 95.8422 39.5227 95.2219 39.5227C94.6964 39.5227 94.2347 39.6648 93.837 39.9489C93.4393 40.2282 93.1291 40.6307 92.9066 41.1562C92.6888 41.6818 92.5799 42.3116 92.5799 43.0455C92.5799 43.7888 92.6888 44.428 92.9066 44.9631C93.1244 45.4934 93.4298 45.9029 93.8228 46.1918C94.2205 46.4759 94.6869 46.6179 95.2219 46.6179C95.6007 46.6179 95.9393 46.5469 96.2376 46.4048C96.5406 46.258 96.7939 46.0473 96.9975 45.7727C97.2011 45.4981 97.3408 45.1643 97.4165 44.7713H99.8739C99.8124 45.5431 99.5851 46.2273 99.1921 46.8239C98.7991 47.4157 98.2641 47.8797 97.587 48.2159C96.9099 48.5473 96.1145 48.7131 95.2006 48.7131ZM104.556 42.108V48.5H101.985V33.9545H104.499V39.4446H104.627C104.883 38.8291 105.278 38.3437 105.813 37.9886C106.353 37.6288 107.04 37.4489 107.873 37.4489C108.63 37.4489 109.291 37.6075 109.854 37.9247C110.418 38.242 110.853 38.706 111.161 39.3168C111.474 39.9276 111.63 40.6733 111.63 41.554V48.5H109.059V41.9517C109.059 41.2178 108.87 40.6473 108.491 40.2401C108.117 39.8281 107.591 39.6222 106.914 39.6222C106.46 39.6222 106.052 39.7216 105.692 39.9205C105.337 40.1146 105.058 40.3963 104.854 40.7656C104.656 41.1349 104.556 41.5824 104.556 42.108Z" fill="black"/>
<path d="M112.807 36.1634V33.9545H124.412V36.1634H119.917V48.5H117.303V36.1634H112.807ZM129.783 48.7131C128.69 48.7131 127.745 48.4858 126.95 48.0312C126.159 47.572 125.55 46.9233 125.124 46.0852C124.698 45.2424 124.485 44.2505 124.485 43.1094C124.485 41.9872 124.698 41.0024 125.124 40.1548C125.555 39.3026 126.156 38.6397 126.928 38.1662C127.7 37.688 128.607 37.4489 129.648 37.4489C130.321 37.4489 130.955 37.5578 131.552 37.7756C132.153 37.9886 132.683 38.3201 133.143 38.7699C133.607 39.2197 133.971 39.7926 134.237 40.4886C134.502 41.1799 134.634 42.0038 134.634 42.9602V43.7486H125.692V42.0156H132.17C132.165 41.5232 132.058 41.0852 131.85 40.7017C131.642 40.3134 131.351 40.008 130.977 39.7855C130.607 39.563 130.176 39.4517 129.684 39.4517C129.158 39.4517 128.697 39.5795 128.299 39.8352C127.901 40.0862 127.591 40.4176 127.369 40.8295C127.151 41.2367 127.04 41.6842 127.035 42.1719V43.6847C127.035 44.3191 127.151 44.8636 127.383 45.3182C127.615 45.768 127.939 46.1136 128.356 46.3551C128.772 46.5919 129.26 46.7102 129.819 46.7102C130.193 46.7102 130.531 46.6581 130.835 46.554C131.138 46.4451 131.4 46.2865 131.623 46.0781C131.845 45.8698 132.013 45.6117 132.127 45.304L134.528 45.5739C134.376 46.2083 134.087 46.7623 133.661 47.2358C133.24 47.7045 132.7 48.0691 132.042 48.3295C131.384 48.5852 130.631 48.7131 129.783 48.7131ZM141.568 48.7131C140.479 48.7131 139.544 48.474 138.762 47.9957C137.986 47.5175 137.387 46.857 136.966 46.0142C136.549 45.1667 136.341 44.1913 136.341 43.0881C136.341 41.9801 136.554 41.0024 136.98 40.1548C137.406 39.3026 138.007 38.6397 138.784 38.1662C139.565 37.688 140.488 37.4489 141.554 37.4489C142.439 37.4489 143.223 37.6122 143.904 37.9389C144.591 38.2609 145.138 38.7178 145.545 39.3097C145.952 39.8968 146.184 40.5833 146.241 41.3693H143.784C143.684 40.8437 143.448 40.4058 143.074 40.0554C142.704 39.7003 142.209 39.5227 141.589 39.5227C141.064 39.5227 140.602 39.6648 140.204 39.9489C139.806 40.2282 139.496 40.6307 139.274 41.1562C139.056 41.6818 138.947 42.3116 138.947 43.0455C138.947 43.7888 139.056 44.428 139.274 44.9631C139.492 45.4934 139.797 45.9029 140.19 46.1918C140.588 46.4759 141.054 46.6179 141.589 46.6179C141.968 46.6179 142.306 46.5469 142.605 46.4048C142.908 46.258 143.161 46.0473 143.365 45.7727C143.568 45.4981 143.708 45.1643 143.784 44.7713H146.241C146.18 45.5431 145.952 46.2273 145.559 46.8239C145.166 47.4157 144.631 47.8797 143.954 48.2159C143.277 48.5473 142.482 48.7131 141.568 48.7131ZM150.923 42.108V48.5H148.352V33.9545H150.866V39.4446H150.994C151.25 38.8291 151.645 38.3437 152.18 37.9886C152.72 37.6288 153.407 37.4489 154.24 37.4489C154.998 37.4489 155.658 37.6075 156.222 37.9247C156.785 38.242 157.221 38.706 157.528 39.3168C157.841 39.9276 157.997 40.6733 157.997 41.554V48.5H155.426V41.9517C155.426 41.2178 155.237 40.6473 154.858 40.2401C154.484 39.8281 153.958 39.6222 153.281 39.6222C152.827 39.6222 152.42 39.7216 152.06 39.9205C151.705 40.1146 151.425 40.3963 151.222 40.7656C151.023 41.1349 150.923 41.5824 150.923 42.108Z" fill="#595956"/>
</svg>
